# xmcd CD database file
#
# Track frame offsets:
#	150
#	6890
#	32820
#	57532
#	131027
#	175580
#	204102
#	239842
#	261392
#	264417
#	284452
#
# Disc length: 3944 seconds
#
# Revision: 0
# Processed by: cddbd v1.5.1PL0 Copyright (c) Steve Scherf et al.
# Submitted via: CDex 1.51
#
DISCID=a30f660b
DTITLE=OBCラジオ大阪Vステーション’９９ - みんな地球の仲間たち DISC 2
DYEAR=1999
DGENRE=その他
TTITLE0=DISC 2 オープニング（岩田光央・メニュー紹介）
TTITLE1=池澤春菜メッセージ
TTITLE2=水色／池澤春菜
TTITLE3=動物省推薦ドラマ 動物大臣がゆく（前半）
TTITLE4=宮村優子メッセージ
TTITLE5=動物省推薦ドラマ 動物大臣がゆく（後半）
TTITLE6=岩田光央メッセージ
TTITLE7=ラジオヴォイスに口づけ／岩田光央
TTITLE8=岩田光央コーナー 2
TTITLE9=DISC 2 エンディングコメント（岩田光央）
TTITLE10=全アーティスト参加リレーメッセージ
EXTD=YEAR: 1999
EXTT0=
EXTT1=
EXTT2=
EXTT3=
EXTT4=
EXTT5=
EXTT6=
EXTT7=
EXTT8=
EXTT9=
EXTT10=
PLAYORDER=
